<?xml version="1.0" encoding="utf-8"?>
<!-- Generator: Adobe Illustrator 16.0.0, SVG Export Plug-In . SVG Version: 6.00 Build 0)  -->
<!DOCTYPE svg PUBLIC "-//W3C//DTD SVG 1.1//EN" "http://www.w3.org/Graphics/SVG/1.1/DTD/svg11.dtd">
<svg version="1.1" id="Ebene_1" xmlns="http://www.w3.org/2000/svg" xmlns:xlink="http://www.w3.org/1999/xlink" x="0px" y="0px"
	 width="260.167px" height="82.302px" viewBox="0 0 260.167 82.302" enable-background="new 0 0 260.167 82.302"
	 xml:space="preserve">
<rect x="11.833" y="14.24" fill="#DADADA" width="246.07" height="11.25"/>
<rect x="11.833" y="57.933" fill="#DADADA" width="246.07" height="12.057"/>
<g>
	<path d="M5.49,21.83H2.414l-0.539,1.254c-0.133,0.309-0.199,0.539-0.199,0.691c0,0.121,0.058,0.228,0.173,0.319
		s0.364,0.151,0.747,0.179v0.217H0.094v-0.217c0.332-0.059,0.547-0.135,0.645-0.229c0.199-0.188,0.42-0.568,0.662-1.143l2.795-6.539
		H4.4l2.766,6.609c0.223,0.531,0.425,0.876,0.606,1.034s0.435,0.247,0.759,0.267v0.217H5.396v-0.217
		c0.316-0.016,0.53-0.068,0.642-0.158s0.167-0.199,0.167-0.328c0-0.172-0.078-0.443-0.234-0.814L5.49,21.83z M5.326,21.396
		l-1.348-3.211l-1.383,3.211H5.326z"/>
</g>
<g>
	<path d="M5.543,63.967c0.551,0.117,0.963,0.305,1.236,0.563c0.379,0.359,0.568,0.799,0.568,1.318c0,0.395-0.125,0.772-0.375,1.134
		s-0.593,0.625-1.028,0.791s-1.101,0.249-1.995,0.249h-3.75v-0.217h0.299c0.332,0,0.57-0.105,0.715-0.316
		c0.09-0.137,0.135-0.428,0.135-0.873v-5.133c0-0.492-0.057-0.803-0.17-0.932c-0.152-0.172-0.379-0.258-0.68-0.258H0.199v-0.217
		h3.434c0.641,0,1.154,0.047,1.541,0.141c0.586,0.141,1.033,0.39,1.342,0.747s0.463,0.769,0.463,1.233
		c0,0.398-0.121,0.755-0.363,1.069S6.016,63.814,5.543,63.967z M2.473,63.65c0.145,0.027,0.31,0.048,0.495,0.062
		s0.39,0.021,0.612,0.021c0.57,0,0.999-0.062,1.286-0.185s0.507-0.312,0.659-0.565s0.229-0.531,0.229-0.832
		c0-0.465-0.189-0.861-0.568-1.189s-0.932-0.492-1.658-0.492c-0.391,0-0.742,0.043-1.055,0.129V63.65z M2.473,67.447
		c0.453,0.105,0.9,0.158,1.342,0.158c0.707,0,1.246-0.159,1.617-0.478s0.557-0.712,0.557-1.181c0-0.309-0.084-0.605-0.252-0.891
		s-0.441-0.51-0.82-0.674s-0.848-0.246-1.406-0.246c-0.242,0-0.449,0.004-0.621,0.012s-0.311,0.021-0.416,0.041V67.447z"/>
</g>
<circle cx="22.833" cy="28.49" r="1.125"/>
<circle cx="40.896" cy="53.99" r="1.125"/>
<circle cx="58.771" cy="28.49" r="1.125"/>
<circle cx="76.833" cy="53.99" r="1.125"/>
<circle cx="94.836" cy="28.49" r="1.125"/>
<circle cx="112.899" cy="53.99" r="1.125"/>
<circle cx="130.774" cy="28.49" r="1.125"/>
<circle cx="148.837" cy="53.99" r="1.125"/>
<circle cx="166.712" cy="28.49" r="1.125"/>
<circle cx="184.774" cy="53.99" r="1.125"/>
<circle cx="202.776" cy="28.49" r="1.125"/>
<circle cx="220.841" cy="53.99" r="1.125"/>
<circle cx="238.716" cy="28.49" r="1.125"/>
<circle cx="256.778" cy="53.99" r="1.125"/>
<g>
	<path d="M25.429,21.842l-0.458,1.274h-3.858v-0.181c1.135-1.048,1.934-1.904,2.397-2.568c0.463-0.664,0.695-1.271,0.695-1.821
		c0-0.42-0.127-0.765-0.381-1.035c-0.254-0.271-0.558-0.405-0.912-0.405c-0.321,0-0.61,0.095-0.866,0.286
		c-0.255,0.189-0.444,0.469-0.567,0.837H21.3c0.08-0.603,0.287-1.064,0.62-1.387c0.333-0.322,0.749-0.483,1.247-0.483
		c0.531,0,0.974,0.173,1.329,0.518c0.355,0.345,0.533,0.752,0.533,1.221c0,0.335-0.077,0.671-0.231,1.006
		c-0.238,0.527-0.624,1.086-1.158,1.675c-0.801,0.886-1.301,1.419-1.5,1.602h1.708c0.347,0,0.591-0.013,0.73-0.039
		c0.14-0.026,0.266-0.079,0.379-0.159c0.112-0.079,0.21-0.192,0.294-0.339H25.429z"/>
</g>
<g>
	<path d="M92.66,17.754c0.184-0.446,0.416-0.79,0.695-1.033c0.28-0.243,0.629-0.364,1.047-0.364c0.516,0,0.912,0.172,1.188,0.518
		c0.209,0.257,0.313,0.532,0.313,0.825c0,0.482-0.294,0.98-0.883,1.494c0.396,0.16,0.695,0.387,0.897,0.684s0.304,0.645,0.304,1.045
		c0,0.573-0.177,1.069-0.532,1.489c-0.462,0.547-1.132,0.82-2.009,0.82c-0.434,0-0.729-0.055-0.886-0.166s-0.235-0.229-0.235-0.356
		c0-0.094,0.037-0.177,0.112-0.249c0.074-0.072,0.164-0.107,0.268-0.107c0.079,0,0.16,0.013,0.242,0.039
		c0.054,0.016,0.176,0.076,0.366,0.178s0.321,0.164,0.395,0.183c0.117,0.036,0.242,0.054,0.375,0.054
		c0.323,0,0.604-0.128,0.843-0.386c0.239-0.257,0.358-0.562,0.358-0.913c0-0.257-0.056-0.508-0.167-0.752
		c-0.082-0.182-0.172-0.321-0.271-0.415c-0.136-0.13-0.323-0.248-0.561-0.354c-0.237-0.106-0.479-0.159-0.727-0.159h-0.152v-0.146
		c0.25-0.033,0.501-0.125,0.753-0.278c0.251-0.153,0.435-0.337,0.548-0.552s0.171-0.451,0.171-0.708
		c0-0.335-0.102-0.606-0.306-0.813s-0.458-0.31-0.762-0.31c-0.491,0-0.901,0.27-1.23,0.811L92.66,17.754z"/>
</g>
<g>
	<path d="M200.66,17.754c0.184-0.446,0.415-0.79,0.695-1.033s0.63-0.364,1.048-0.364c0.516,0,0.912,0.172,1.188,0.518
		c0.209,0.257,0.313,0.532,0.313,0.825c0,0.482-0.294,0.98-0.883,1.494c0.396,0.16,0.695,0.387,0.897,0.684s0.304,0.645,0.304,1.045
		c0,0.573-0.178,1.069-0.531,1.489c-0.463,0.547-1.133,0.82-2.01,0.82c-0.434,0-0.729-0.055-0.885-0.166
		c-0.157-0.111-0.236-0.229-0.236-0.356c0-0.094,0.037-0.177,0.112-0.249c0.074-0.072,0.163-0.107,0.269-0.107
		c0.078,0,0.16,0.013,0.242,0.039c0.054,0.016,0.176,0.076,0.365,0.178s0.321,0.164,0.395,0.183
		c0.117,0.036,0.242,0.054,0.375,0.054c0.323,0,0.604-0.128,0.844-0.386c0.238-0.257,0.357-0.562,0.357-0.913
		c0-0.257-0.055-0.508-0.166-0.752c-0.082-0.182-0.172-0.321-0.271-0.415c-0.136-0.13-0.323-0.248-0.561-0.354
		s-0.479-0.159-0.727-0.159h-0.151v-0.146c0.25-0.033,0.5-0.125,0.752-0.278s0.436-0.337,0.549-0.552s0.171-0.451,0.171-0.708
		c0-0.335-0.103-0.606-0.306-0.813c-0.205-0.207-0.459-0.31-0.763-0.31c-0.491,0-0.901,0.27-1.229,0.811L200.66,17.754z"/>
</g>
<g>
	<path d="M168.774,20.674v0.693h-0.863v1.748h-0.784v-1.748h-2.726v-0.625l2.986-4.385h0.523v4.316H168.774z M167.127,20.674v-3.286
		l-2.261,3.286H167.127z"/>
</g>
<g>
	<path d="M133.46,21.841l-0.451,1.274h-3.8v-0.181c1.118-1.048,1.904-1.904,2.36-2.568s0.684-1.271,0.684-1.821
		c0-0.42-0.125-0.765-0.375-1.035s-0.549-0.405-0.897-0.405c-0.317,0-0.601,0.095-0.853,0.286c-0.251,0.19-0.438,0.47-0.558,0.837
		h-0.176c0.079-0.602,0.283-1.064,0.61-1.387s0.737-0.483,1.228-0.483c0.522,0,0.959,0.172,1.309,0.518
		c0.35,0.345,0.525,0.752,0.525,1.221c0,0.335-0.076,0.67-0.229,1.006c-0.234,0.527-0.614,1.085-1.139,1.675
		c-0.789,0.885-1.281,1.419-1.477,1.602h1.681c0.342,0,0.582-0.013,0.719-0.039c0.138-0.026,0.263-0.079,0.373-0.159
		s0.208-0.193,0.29-0.339H133.46z"/>
</g>
<g>
	<path d="M60.775,20.674v0.693h-0.864v1.748h-0.784v-1.748h-2.726v-0.625l2.987-4.385h0.522v4.316H60.775z M59.127,20.674v-3.286
		l-2.261,3.286H59.127z"/>
</g>
<g>
	<path d="M186.642,65.425l-0.451,1.273h-3.799v-0.18c1.117-1.049,1.904-1.904,2.36-2.568s0.685-1.271,0.685-1.822
		c0-0.42-0.126-0.765-0.376-1.035c-0.25-0.27-0.55-0.404-0.897-0.404c-0.316,0-0.601,0.095-0.853,0.285
		c-0.251,0.19-0.438,0.47-0.558,0.838h-0.176c0.078-0.603,0.282-1.064,0.609-1.387c0.328-0.322,0.737-0.484,1.229-0.484
		c0.521,0,0.959,0.173,1.309,0.518c0.35,0.346,0.524,0.752,0.524,1.221c0,0.336-0.076,0.671-0.228,1.006
		c-0.234,0.527-0.615,1.086-1.141,1.676c-0.788,0.885-1.28,1.419-1.477,1.602h1.682c0.342,0,0.581-0.014,0.719-0.039
		c0.139-0.026,0.262-0.08,0.373-0.159s0.207-0.192,0.289-0.339H186.642z"/>
</g>
<g>
	<path d="M114.775,64.257v0.693h-0.864v1.748h-0.784V64.95h-2.726v-0.625l2.987-4.385h0.522v4.316H114.775z M113.127,64.257v-3.285
		l-2.261,3.285H113.127z"/>
</g>
<g>
	<path d="M38.91,61.337c0.184-0.445,0.416-0.789,0.695-1.032c0.28-0.243,0.629-0.364,1.047-0.364c0.516,0,0.912,0.173,1.188,0.518
		c0.209,0.258,0.313,0.533,0.313,0.826c0,0.481-0.294,0.979-0.883,1.494c0.396,0.159,0.695,0.387,0.897,0.684
		c0.203,0.296,0.304,0.645,0.304,1.045c0,0.572-0.177,1.068-0.532,1.488c-0.462,0.547-1.132,0.82-2.009,0.82
		c-0.434,0-0.729-0.055-0.886-0.166c-0.157-0.11-0.235-0.229-0.235-0.355c0-0.095,0.037-0.178,0.112-0.25
		c0.074-0.071,0.164-0.107,0.268-0.107c0.079,0,0.16,0.014,0.242,0.039c0.054,0.017,0.176,0.076,0.366,0.179
		s0.321,0.163,0.395,0.183c0.117,0.036,0.242,0.055,0.375,0.055c0.323,0,0.604-0.129,0.843-0.387
		c0.239-0.257,0.358-0.561,0.358-0.912c0-0.258-0.056-0.508-0.167-0.752c-0.082-0.183-0.172-0.321-0.271-0.416
		c-0.136-0.13-0.323-0.248-0.561-0.354c-0.237-0.105-0.479-0.158-0.727-0.158h-0.152v-0.146c0.25-0.033,0.501-0.126,0.753-0.279
		c0.251-0.152,0.435-0.336,0.548-0.551s0.171-0.451,0.171-0.709c0-0.335-0.102-0.605-0.306-0.813s-0.458-0.311-0.762-0.311
		c-0.491,0-0.901,0.271-1.23,0.811L38.91,61.337z"/>
</g>
<g>
	<path d="M222.524,64.257v0.693h-0.863v1.748h-0.784V64.95h-2.726v-0.625l2.986-4.385h0.523v4.316H222.524z M220.877,64.257v-3.285
		l-2.261,3.285H220.877z"/>
</g>
<g>
	<path d="M146.66,61.337c0.184-0.445,0.415-0.789,0.695-1.032s0.63-0.364,1.048-0.364c0.516,0,0.912,0.173,1.188,0.518
		c0.209,0.258,0.313,0.533,0.313,0.826c0,0.481-0.294,0.979-0.883,1.494c0.396,0.159,0.695,0.387,0.897,0.684
		c0.202,0.296,0.304,0.645,0.304,1.045c0,0.572-0.178,1.068-0.531,1.488c-0.463,0.547-1.133,0.82-2.01,0.82
		c-0.434,0-0.729-0.055-0.885-0.166c-0.157-0.11-0.236-0.229-0.236-0.355c0-0.095,0.037-0.178,0.112-0.25
		c0.074-0.071,0.163-0.107,0.269-0.107c0.078,0,0.16,0.014,0.242,0.039c0.054,0.017,0.176,0.076,0.365,0.179
		s0.321,0.163,0.395,0.183c0.117,0.036,0.242,0.055,0.375,0.055c0.323,0,0.604-0.129,0.844-0.387
		c0.238-0.257,0.357-0.561,0.357-0.912c0-0.258-0.055-0.508-0.166-0.752c-0.082-0.183-0.172-0.321-0.271-0.416
		c-0.136-0.13-0.323-0.248-0.561-0.354s-0.479-0.158-0.727-0.158h-0.151v-0.146c0.25-0.033,0.5-0.126,0.752-0.279
		c0.252-0.152,0.436-0.336,0.549-0.551s0.171-0.451,0.171-0.709c0-0.335-0.103-0.605-0.306-0.813
		c-0.205-0.207-0.459-0.311-0.763-0.311c-0.491,0-0.901,0.271-1.229,0.811L146.66,61.337z"/>
</g>
<g>
	<path d="M78.792,65.425l-0.451,1.273h-3.799v-0.18c1.118-1.049,1.904-1.904,2.36-2.568s0.684-1.271,0.684-1.822
		c0-0.42-0.125-0.765-0.375-1.035c-0.25-0.27-0.549-0.404-0.897-0.404c-0.317,0-0.601,0.095-0.853,0.285
		c-0.251,0.19-0.438,0.47-0.558,0.838h-0.176c0.079-0.603,0.283-1.064,0.61-1.387s0.737-0.484,1.228-0.484
		c0.522,0,0.959,0.173,1.309,0.518c0.35,0.346,0.525,0.752,0.525,1.221c0,0.336-0.076,0.671-0.228,1.006
		c-0.234,0.527-0.614,1.086-1.14,1.676c-0.789,0.885-1.281,1.419-1.477,1.602h1.681c0.342,0,0.582-0.014,0.719-0.039
		c0.138-0.026,0.262-0.08,0.373-0.159s0.208-0.192,0.29-0.339H78.792z"/>
</g>
<g>
	<path d="M254.539,61.337c0.184-0.445,0.415-0.789,0.695-1.032s0.63-0.364,1.048-0.364c0.516,0,0.912,0.173,1.188,0.518
		c0.209,0.258,0.313,0.533,0.313,0.826c0,0.481-0.294,0.979-0.883,1.494c0.396,0.159,0.695,0.387,0.897,0.684
		c0.202,0.296,0.304,0.645,0.304,1.045c0,0.572-0.178,1.068-0.531,1.488c-0.463,0.547-1.133,0.82-2.01,0.82
		c-0.434,0-0.729-0.055-0.885-0.166c-0.157-0.11-0.236-0.229-0.236-0.355c0-0.095,0.037-0.178,0.112-0.25
		c0.074-0.071,0.163-0.107,0.269-0.107c0.078,0,0.16,0.014,0.242,0.039c0.054,0.017,0.176,0.076,0.365,0.179
		s0.321,0.163,0.395,0.183c0.117,0.036,0.242,0.055,0.375,0.055c0.323,0,0.604-0.129,0.844-0.387
		c0.238-0.257,0.357-0.561,0.357-0.912c0-0.258-0.055-0.508-0.166-0.752c-0.082-0.183-0.172-0.321-0.271-0.416
		c-0.136-0.13-0.323-0.248-0.561-0.354s-0.479-0.158-0.727-0.158h-0.151v-0.146c0.25-0.033,0.5-0.126,0.752-0.279
		c0.252-0.152,0.436-0.336,0.549-0.551s0.171-0.451,0.171-0.709c0-0.335-0.103-0.605-0.306-0.813
		c-0.205-0.207-0.459-0.311-0.763-0.311c-0.491,0-0.901,0.271-1.229,0.811L254.539,61.337z"/>
</g>
<g>
	<g>
		
			<line fill="none" stroke="#000000" stroke-width="0.75" stroke-miterlimit="10" x1="42.287" y1="50.824" x2="90.256" y2="30.451"/>
		<g>
			<path d="M92.756,29.39c-0.991,0.936-2.134,2.301-2.704,3.473l-0.124-2.271l-1.549-1.668
				C89.619,29.328,91.395,29.453,92.756,29.39z"/>
		</g>
	</g>
</g>
<g>
	<g>
		
			<line fill="none" stroke="#000000" stroke-width="0.75" stroke-miterlimit="10" x1="150.856" y1="50.824" x2="198.825" y2="30.451"/>
		<g>
			<path d="M201.325,29.39c-0.99,0.936-2.135,2.301-2.703,3.473l-0.125-2.271l-1.549-1.668
				C198.188,29.328,199.964,29.453,201.325,29.39z"/>
		</g>
	</g>
</g>
<g>
	<g>
		
			<line fill="none" stroke="#000000" stroke-width="0.75" stroke-miterlimit="10" x1="96.833" y1="29.39" x2="144.804" y2="49.761"/>
		<g>
			<path d="M147.302,50.824c-1.361-0.063-3.137,0.063-4.377,0.467l1.551-1.668l0.123-2.271
				C145.169,48.523,146.312,49.888,147.302,50.824z"/>
		</g>
	</g>
</g>
<g>
	<g>
		
			<line fill="none" stroke="#000000" stroke-width="0.7354" stroke-miterlimit="10" x1="204.999" y1="29.615" x2="251.601" y2="49.767"/>
		<g>
			<path d="M254.046,50.824c-1.336-0.07-3.078,0.041-4.295,0.43l1.529-1.625l0.137-2.229
				C251.968,48.554,253.079,49.9,254.046,50.824z"/>
		</g>
	</g>
</g>
<path fill="none" stroke="#000000" stroke-width="0.5" stroke-miterlimit="10" d="M217.577,59.146"/>
<g>
	<g>
		<path fill="none" stroke="#000000" stroke-width="0.75" stroke-miterlimit="10" d="M61.79,14.49c0,0,9.512-13.291,32.558-13.533
			c17.605-0.186,28.45,7.711,32.591,11.451"/>
		<g>
			<path d="M128.858,14.322c-1.243-0.561-2.938-1.098-4.241-1.18l2.055-0.979l0.953-2.066
				C127.722,11.398,128.281,13.087,128.858,14.322z"/>
		</g>
	</g>
</g>
<g>
	<g>
		<path fill="none" stroke="#000000" stroke-width="0.75" stroke-miterlimit="10" d="M170.292,14.49c0,0,9.664-13.668,32.711-13.91
			c17.711-0.186,28.883,8.129,33.104,11.988"/>
		<g>
			<path d="M238.021,14.49c-1.24-0.563-2.936-1.105-4.238-1.189l2.057-0.973l0.957-2.064
				C236.892,11.562,237.446,13.253,238.021,14.49z"/>
		</g>
	</g>
</g>
<g>
	<g>
		<path fill="none" stroke="#000000" stroke-width="0.75" stroke-miterlimit="10" d="M115.114,68.228
			c0,0,9.512,13.291,32.559,13.533c17.604,0.186,28.449-7.711,32.59-11.451"/>
		<g>
			<path d="M182.183,68.396c-0.576,1.234-1.137,2.924-1.234,4.225l-0.951-2.066l-2.055-0.979
				C179.243,69.495,180.94,68.956,182.183,68.396z"/>
		</g>
	</g>
</g>
<g>
	<g>
		
			<line fill="none" stroke="#000000" stroke-width="0.779" stroke-miterlimit="10" x1="26.385" y1="28.615" x2="50.631" y2="28.615"/>
		<g>
			<path d="M53.452,28.615c-1.327,0.492-2.974,1.334-3.995,2.223l0.804-2.223l-0.804-2.223
				C50.478,27.283,52.125,28.123,53.452,28.615z"/>
		</g>
	</g>
</g>
<g>
	<g>
		
			<line fill="none" stroke="#000000" stroke-width="0.779" stroke-miterlimit="10" x1="135.729" y1="28.49" x2="159.976" y2="28.49"/>
		<g>
			<path d="M162.796,28.49c-1.326,0.492-2.973,1.334-3.994,2.223l0.805-2.223l-0.805-2.223
				C159.823,27.158,161.47,27.998,162.796,28.49z"/>
		</g>
	</g>
</g>
<g>
	<g>
		
			<line fill="none" stroke="#000000" stroke-width="0.779" stroke-miterlimit="10" x1="81.058" y1="54.052" x2="105.303" y2="54.052"/>
		<g>
			<path d="M108.124,54.052c-1.327,0.492-2.974,1.334-3.995,2.223l0.804-2.223l-0.804-2.223
				C105.15,52.72,106.797,53.56,108.124,54.052z"/>
		</g>
	</g>
</g>
<g>
	<g>
		
			<line fill="none" stroke="#000000" stroke-width="0.779" stroke-miterlimit="10" x1="190.403" y1="53.927" x2="214.647" y2="53.927"/>
		<g>
			<path d="M217.47,53.927c-1.328,0.492-2.975,1.334-3.996,2.223l0.805-2.223l-0.805-2.223
				C214.495,52.595,216.142,53.435,217.47,53.927z"/>
		</g>
	</g>
</g>
<path fill="none" stroke="#000000" stroke-width="0.75" stroke-miterlimit="10" d="M223.243,68.228c0,0,9.512,13.291,32.559,13.533"
	/>
<g>
</g>
<g>
</g>
<g>
</g>
<g>
</g>
<g>
</g>
<g>
</g>
<g>
</g>
</svg>
