<?xml version="1.0" encoding="utf-8"?>
<!-- Generator: Adobe Illustrator 16.0.0, SVG Export Plug-In . SVG Version: 6.00 Build 0)  -->
<!DOCTYPE svg PUBLIC "-//W3C//DTD SVG 1.1//EN" "http://www.w3.org/Graphics/SVG/1.1/DTD/svg11.dtd">
<svg version="1.1" id="Ebene_1" xmlns="http://www.w3.org/2000/svg" xmlns:xlink="http://www.w3.org/1999/xlink" x="0px" y="0px"
	 width="261.833px" height="116.334px" viewBox="0 -5.877 261.833 116.334" enable-background="new 0 -5.877 261.833 116.334"
	 xml:space="preserve">
<rect x="13.798" y="24.969" fill="#D9D9D9" width="246.069" height="11.25"/>
<rect x="13.798" y="68.663" fill="#D9D9D9" width="246.069" height="12.057"/>
<text transform="matrix(1 0 0 1 1.9653 35.2192)" fill="#1D1D1B" font-family="'TimesNewRomanPSMT'" font-size="12" letter-spacing="2">A</text>
<text transform="matrix(1 0 0 1 1.9653 78.7505)" fill="#1D1D1B" font-family="'TimesNewRomanPSMT'" font-size="12" letter-spacing="2">B</text>
<circle fill="#1D1D1B" cx="24.798" cy="39.219" r="1.125"/>
<circle fill="#1D1D1B" cx="42.861" cy="64.719" r="1.125"/>
<circle fill="#1D1D1B" cx="60.736" cy="39.219" r="1.125"/>
<circle fill="#1D1D1B" cx="78.798" cy="64.719" r="1.125"/>
<circle fill="#1D1D1B" cx="96.802" cy="39.219" r="1.125"/>
<circle fill="#1D1D1B" cx="114.864" cy="64.719" r="1.125"/>
<circle fill="#1D1D1B" cx="132.739" cy="39.219" r="1.125"/>
<circle fill="#1D1D1B" cx="150.801" cy="64.719" r="1.125"/>
<circle fill="#1D1D1B" cx="168.676" cy="39.219" r="1.125"/>
<circle fill="#1D1D1B" cx="186.739" cy="64.719" r="1.125"/>
<circle fill="#1D1D1B" cx="204.743" cy="39.219" r="1.125"/>
<circle fill="#1D1D1B" cx="222.805" cy="64.719" r="1.125"/>
<circle fill="#1D1D1B" cx="240.68" cy="39.219" r="1.125"/>
<circle fill="#1D1D1B" cx="258.743" cy="64.719" r="1.125"/>
<g>
	<g>
		<path fill="none" stroke="#1D1D1B" stroke-width="0.75" stroke-miterlimit="10" d="M27.038,25.219
			c0,0,19.302-27.043,67.302-27.543c40.243-0.419,63.528,19.282,70.003,25.661"/>
		<g>
			<path fill="#1D1D1B" d="M166.215,25.301c-1.234-0.58-2.924-1.144-4.223-1.244l2.068-0.947l0.984-2.053
				C165.122,22.36,165.657,24.057,166.215,25.301z"/>
		</g>
	</g>
</g>
<text transform="matrix(0.9726 0 0 1 22.9653 33.8447)" fill="#1D1D1B" font-family="'TimesNewRomanPSMT'" font-size="10">8</text>
<text transform="matrix(0.9726 0 0 1 94.1313 33.8447)" fill="#1D1D1B" font-family="'TimesNewRomanPSMT'" font-size="10">3</text>
<text transform="matrix(0.9726 0 0 1 202.1313 33.8447)" fill="#1D1D1B" font-family="'TimesNewRomanPSMT'" font-size="10">3</text>
<text transform="matrix(0.9726 0 0 1 166.2144 33.8447)" fill="#1D1D1B" font-family="'TimesNewRomanPSMT'" font-size="10">4</text>
<text transform="matrix(0.9726 0 0 1 130.9653 33.8447)" fill="#1D1D1B" font-family="'TimesNewRomanPSMT'" font-size="10">8</text>
<text transform="matrix(0.9726 0 0 1 58.2144 33.8447)" fill="#1D1D1B" font-family="'TimesNewRomanPSMT'" font-size="10">4</text>
<text transform="matrix(0.9726 0 0 1 238.5552 33.8447)" fill="#1D1D1B" font-family="'TimesNewRomanPSMT'" font-size="10">8</text>
<text transform="matrix(0.9726 0 0 1 184.1479 77.4272)" fill="#1D1D1B" font-family="'TimesNewRomanPSMT'" font-size="10">8</text>
<text transform="matrix(0.9726 0 0 1 112.2144 77.4272)" fill="#1D1D1B" font-family="'TimesNewRomanPSMT'" font-size="10">4</text>
<text transform="matrix(0.9726 0 0 1 40.3813 77.4272)" fill="#1D1D1B" font-family="'TimesNewRomanPSMT'" font-size="10">3</text>
<text transform="matrix(0.9726 0 0 1 219.9644 77.4272)" fill="#1D1D1B" font-family="'TimesNewRomanPSMT'" font-size="10">4</text>
<text transform="matrix(0.9726 0 0 1 148.1313 77.4272)" fill="#1D1D1B" font-family="'TimesNewRomanPSMT'" font-size="10">3</text>
<text transform="matrix(0.9726 0 0 1 76.2979 77.4272)" fill="#1D1D1B" font-family="'TimesNewRomanPSMT'" font-size="10">8</text>
<text transform="matrix(0.9726 0 0 1 256.0103 77.4272)" fill="#1D1D1B" font-family="'TimesNewRomanPSMT'" font-size="10">3</text>
<g>
	<g>
		<line fill="none" stroke="#1D1D1B" stroke-width="0.75" stroke-miterlimit="10" x1="44.252" y1="61.553" x2="92.222" y2="41.18"/>
		<g>
			<path fill="#1D1D1B" d="M94.721,40.12c-0.991,0.936-2.134,2.3-2.704,3.473l-0.124-2.272l-1.549-1.667
				C91.584,40.057,93.36,40.182,94.721,40.12z"/>
		</g>
	</g>
</g>
<g>
	<g>
		
			<line fill="none" stroke="#1D1D1B" stroke-width="0.75" stroke-miterlimit="10" x1="152.821" y1="61.553" x2="200.792" y2="41.18"/>
		<g>
			<path fill="#1D1D1B" d="M203.292,40.12c-0.992,0.936-2.135,2.3-2.705,3.473l-0.123-2.272l-1.549-1.667
				C200.153,40.057,201.93,40.182,203.292,40.12z"/>
		</g>
	</g>
</g>
<g>
	<g>
		
			<line fill="none" stroke="#1D1D1B" stroke-width="0.75" stroke-miterlimit="10" x1="98.799" y1="40.12" x2="146.768" y2="60.491"/>
		<g>
			<path fill="#1D1D1B" d="M149.268,61.553c-1.361-0.063-3.137,0.062-4.377,0.466l1.549-1.667l0.125-2.272
				C147.133,59.252,148.278,60.618,149.268,61.553z"/>
		</g>
	</g>
</g>
<g>
	<g>
		
			<line fill="none" stroke="#1D1D1B" stroke-width="0.7354" stroke-miterlimit="10" x1="206.965" y1="40.344" x2="253.567" y2="60.496"/>
		<g>
			<path fill="#1D1D1B" d="M256.01,61.553c-1.334-0.071-3.076,0.04-4.295,0.429l1.529-1.625l0.137-2.228
				C253.932,59.284,255.045,60.629,256.01,61.553z"/>
		</g>
	</g>
</g>
<path fill="none" stroke="#1D1D1B" stroke-width="0.75" stroke-miterlimit="10" d="M136.618,25.219c0,0,20.127-28.25,68.127-28.75
	c23.359-0.243,41.283,6.559,53.531,13.606"/>
<path fill="none" stroke="#1D1D1B" stroke-width="0.5" stroke-miterlimit="10" d="M219.542,69.875"/>
<g>
	<g>
		<path fill="none" stroke="#1D1D1B" stroke-width="0.75" stroke-miterlimit="10" d="M63.755,25.219c0,0,9.512-13.292,32.558-13.534
			c17.605-0.185,28.451,7.712,32.591,11.451"/>
		<g>
			<path fill="#1D1D1B" d="M130.823,25.051c-1.243-0.561-2.938-1.099-4.241-1.18l2.055-0.979l0.953-2.066
				C129.688,22.126,130.246,23.817,130.823,25.051z"/>
		</g>
	</g>
</g>
<g>
	<g>
		<path fill="none" stroke="#1D1D1B" stroke-width="0.75" stroke-miterlimit="10" d="M172.256,25.219
			c0,0,9.666-13.668,32.711-13.911c17.713-0.186,28.883,8.129,33.105,11.989"/>
		<g>
			<path fill="#1D1D1B" d="M239.987,25.219c-1.242-0.563-2.938-1.105-4.238-1.189l2.057-0.974l0.957-2.064
				C238.856,22.292,239.413,23.983,239.987,25.219z"/>
		</g>
	</g>
</g>
<g>
	<g>
		<path fill="none" stroke="#1D1D1B" stroke-width="0.75" stroke-miterlimit="10" d="M80.362,78.958
			c0,0,19.302,27.043,67.302,27.543c40.242,0.419,63.527-19.281,70.002-25.66"/>
		<g>
			<path fill="#1D1D1B" d="M219.54,78.875c-0.559,1.244-1.092,2.941-1.17,4.243l-0.984-2.052l-2.068-0.948
				C216.618,80.018,218.305,79.456,219.54,78.875z"/>
		</g>
	</g>
</g>
<path fill="none" stroke="#1D1D1B" stroke-width="0.75" stroke-miterlimit="10" d="M189.942,78.958c0,0,16.426,28.75,69.926,28.75"
	/>
<g>
	<g>
		<path fill="none" stroke="#1D1D1B" stroke-width="0.75" stroke-miterlimit="10" d="M117.08,78.958c0,0,9.512,13.291,32.557,13.533
			c17.605,0.186,28.451-7.711,32.592-11.451"/>
		<g>
			<path fill="#1D1D1B" d="M184.149,79.125c-0.576,1.234-1.137,2.924-1.234,4.225l-0.953-2.066l-2.053-0.979
				C181.209,80.224,182.907,79.686,184.149,79.125z"/>
		</g>
	</g>
</g>
<path fill="none" stroke="#1D1D1B" stroke-width="0.75" stroke-miterlimit="10" d="M225.907,78.959c0,0,9.512,13.291,32.559,13.533"
	/>
</svg>
