<?xml version="1.0" encoding="utf-8"?>
<!-- Generator: Adobe Illustrator 16.0.0, SVG Export Plug-In . SVG Version: 6.00 Build 0)  -->
<!DOCTYPE svg PUBLIC "-//W3C//DTD SVG 1.1//EN" "http://www.w3.org/Graphics/SVG/1.1/DTD/svg11.dtd">
<svg version="1.1" id="Ebene_1" xmlns="http://www.w3.org/2000/svg" xmlns:xlink="http://www.w3.org/1999/xlink" x="0px" y="0px"
	 width="69.604px" height="120.709px" viewBox="0 0 69.604 120.709" enable-background="new 0 0 69.604 120.709"
	 xml:space="preserve">
<g>
	<path d="M2.613,62.033c-0.714-0.602-1.174-1.084-1.38-1.449s-0.309-0.743-0.309-1.135c0-0.602,0.226-1.12,0.678-1.555
		s1.053-0.653,1.802-0.653c0.727,0,1.312,0.203,1.755,0.608s0.665,0.868,0.665,1.388c0,0.346-0.12,0.7-0.359,1.06
		s-0.738,0.784-1.496,1.271c0.78,0.62,1.297,1.107,1.549,1.463c0.337,0.465,0.505,0.954,0.505,1.47c0,0.652-0.242,1.209-0.725,1.672
		c-0.483,0.462-1.117,0.693-1.902,0.693c-0.855,0-1.522-0.275-2.001-0.827c-0.381-0.442-0.572-0.925-0.572-1.449
		c0-0.41,0.134-0.817,0.402-1.22C1.495,62.965,1.957,62.521,2.613,62.033z M2.926,62.292c-0.368,0.319-0.641,0.667-0.818,1.042
		c-0.178,0.377-0.266,0.783-0.266,1.221c0,0.588,0.156,1.059,0.469,1.412c0.313,0.353,0.71,0.529,1.193,0.529
		c0.479,0,0.862-0.139,1.15-0.417s0.432-0.615,0.432-1.012c0-0.328-0.084-0.622-0.252-0.882C4.519,63.704,3.883,63.072,2.926,62.292
		z M3.657,61.301c0.532-0.492,0.869-0.881,1.011-1.166c0.142-0.285,0.213-0.607,0.213-0.967c0-0.479-0.131-0.854-0.392-1.125
		c-0.262-0.271-0.619-0.407-1.071-0.407s-0.82,0.134-1.104,0.403s-0.426,0.583-0.426,0.943c0,0.237,0.059,0.474,0.176,0.711
		s0.285,0.462,0.502,0.677L3.657,61.301z"/>
	<path d="M12.988,59.196c0.257-0.625,0.582-1.106,0.974-1.446s0.881-0.509,1.466-0.509c0.722,0,1.276,0.242,1.662,0.725
		c0.292,0.36,0.439,0.745,0.439,1.155c0,0.674-0.413,1.372-1.237,2.092c0.554,0.223,0.973,0.542,1.257,0.957
		c0.283,0.415,0.425,0.902,0.425,1.463c0,0.802-0.248,1.497-0.745,2.085c-0.647,0.766-1.585,1.148-2.813,1.148
		c-0.607,0-1.021-0.078-1.24-0.232c-0.219-0.154-0.329-0.321-0.329-0.499c0-0.132,0.052-0.249,0.156-0.349s0.229-0.15,0.376-0.15
		c0.11,0,0.224,0.018,0.339,0.055c0.075,0.023,0.246,0.105,0.512,0.25c0.266,0.143,0.45,0.229,0.552,0.256
		c0.164,0.051,0.339,0.075,0.525,0.075c0.452,0,0.845-0.181,1.18-0.54c0.334-0.359,0.502-0.786,0.502-1.278
		c0-0.36-0.078-0.711-0.233-1.053c-0.115-0.255-0.242-0.448-0.379-0.581c-0.191-0.182-0.452-0.348-0.785-0.496
		s-0.671-0.222-1.017-0.222h-0.213v-0.205c0.35-0.045,0.702-0.175,1.054-0.39c0.353-0.214,0.608-0.472,0.768-0.772
		s0.239-0.631,0.239-0.991c0-0.469-0.143-0.849-0.429-1.138c-0.286-0.29-0.642-0.434-1.067-0.434c-0.687,0-1.261,0.378-1.722,1.135
		L12.988,59.196z"/>
	<path d="M30.929,63.284v0.971h-1.21v2.447h-1.097v-2.447h-3.816v-0.875l4.182-6.139h0.731v6.043H30.929z M28.622,63.284v-4.601
		l-3.165,4.601H28.622z"/>
	<path d="M39.502,62.033c-0.714-0.602-1.174-1.084-1.38-1.449s-0.309-0.743-0.309-1.135c0-0.602,0.226-1.12,0.678-1.555
		s1.053-0.653,1.802-0.653c0.727,0,1.312,0.203,1.755,0.608c0.443,0.406,0.666,0.868,0.666,1.388c0,0.346-0.121,0.7-0.359,1.06
		c-0.24,0.36-0.738,0.784-1.497,1.271c0.78,0.62,1.297,1.107,1.549,1.463c0.337,0.465,0.506,0.954,0.506,1.47
		c0,0.652-0.242,1.209-0.725,1.672c-0.484,0.462-1.118,0.693-1.902,0.693c-0.855,0-1.522-0.275-2.001-0.827
		c-0.381-0.442-0.572-0.925-0.572-1.449c0-0.41,0.134-0.817,0.402-1.22C38.384,62.965,38.846,62.521,39.502,62.033z M39.814,62.292
		c-0.368,0.319-0.641,0.667-0.818,1.042c-0.178,0.377-0.266,0.783-0.266,1.221c0,0.588,0.156,1.059,0.469,1.412
		c0.313,0.353,0.71,0.529,1.193,0.529c0.479,0,0.862-0.139,1.15-0.417s0.433-0.615,0.433-1.012c0-0.328-0.084-0.622-0.253-0.882
		C41.408,63.704,40.771,63.072,39.814,62.292z M40.545,61.301c0.532-0.492,0.869-0.881,1.011-1.166
		c0.142-0.285,0.213-0.607,0.213-0.967c0-0.479-0.131-0.854-0.392-1.125c-0.262-0.271-0.619-0.407-1.071-0.407
		s-0.82,0.134-1.104,0.403s-0.426,0.583-0.426,0.943c0,0.237,0.059,0.474,0.176,0.711s0.285,0.462,0.502,0.677L40.545,61.301z"/>
	<path d="M49.876,59.196c0.258-0.625,0.582-1.106,0.975-1.446s0.881-0.509,1.467-0.509c0.722,0,1.275,0.242,1.662,0.725
		c0.292,0.36,0.438,0.745,0.438,1.155c0,0.674-0.413,1.372-1.237,2.092c0.555,0.223,0.973,0.542,1.258,0.957
		c0.283,0.415,0.425,0.902,0.425,1.463c0,0.802-0.248,1.497-0.745,2.085c-0.646,0.766-1.584,1.148-2.813,1.148
		c-0.607,0-1.02-0.078-1.24-0.232c-0.219-0.154-0.328-0.321-0.328-0.499c0-0.132,0.052-0.249,0.156-0.349
		c0.104-0.1,0.229-0.15,0.375-0.15c0.111,0,0.225,0.018,0.34,0.055c0.074,0.023,0.246,0.105,0.512,0.25
		c0.266,0.143,0.449,0.229,0.552,0.256c0.164,0.051,0.339,0.075,0.525,0.075c0.452,0,0.845-0.181,1.181-0.54
		c0.334-0.359,0.502-0.786,0.502-1.278c0-0.36-0.078-0.711-0.233-1.053c-0.115-0.255-0.241-0.448-0.379-0.581
		c-0.19-0.182-0.452-0.348-0.784-0.496c-0.333-0.148-0.672-0.222-1.018-0.222h-0.213v-0.205c0.35-0.045,0.701-0.175,1.054-0.39
		s0.608-0.472,0.769-0.772c0.159-0.301,0.238-0.631,0.238-0.991c0-0.469-0.143-0.849-0.428-1.138
		c-0.287-0.29-0.643-0.434-1.068-0.434c-0.687,0-1.26,0.378-1.721,1.135L49.876,59.196z"/>
	<path d="M67.817,63.284v0.971h-1.209v2.447h-1.098v-2.447h-3.816v-0.875l4.182-6.139h0.732v6.043H67.817z M65.511,63.284v-4.601
		l-3.165,4.601H65.511z"/>
</g>
<g>
	<g>
		
			<line fill="none" stroke="#000000" stroke-width="0.8198" stroke-miterlimit="10" x1="5.191" y1="51.693" x2="5.191" y2="17.292"/>
		<g>
			<path d="M5.191,12.345c0.864,2.328,2.337,5.216,3.899,7.007l-3.899-1.41l-3.898,1.41C2.854,17.561,4.328,14.673,5.191,12.345z"/>
		</g>
	</g>
</g>
<g>
	<g>
		
			<line fill="none" stroke="#000000" stroke-width="0.8198" stroke-miterlimit="10" x1="28.281" y1="51.693" x2="28.281" y2="17.292"/>
		<g>
			<path d="M28.281,12.345c0.864,2.328,2.337,5.216,3.899,7.007l-3.899-1.41l-3.898,1.41C25.944,17.561,27.418,14.673,28.281,12.345
				z"/>
		</g>
	</g>
</g>
<g>
	<g>
		
			<line fill="none" stroke="#000000" stroke-width="0.8198" stroke-miterlimit="10" x1="51.371" y1="51.693" x2="51.371" y2="17.292"/>
		<g>
			<path d="M51.371,12.345c0.864,2.328,2.337,5.216,3.899,7.007l-3.899-1.41l-3.897,1.41C49.034,17.561,50.509,14.673,51.371,12.345
				z"/>
		</g>
	</g>
</g>
<g>
	<g>
		
			<line fill="none" stroke="#000000" stroke-width="0.8198" stroke-miterlimit="10" x1="16.395" y1="70.795" x2="16.395" y2="105.197"/>
		<g>
			<path d="M16.395,110.144c-0.864-2.328-2.337-5.216-3.899-7.007l3.899,1.41l3.898-1.41
				C18.731,104.928,17.257,107.816,16.395,110.144z"/>
		</g>
	</g>
</g>
<g>
	<g>
		
			<line fill="none" stroke="#000000" stroke-width="0.8198" stroke-miterlimit="10" x1="40.782" y1="70.795" x2="40.782" y2="105.197"/>
		<g>
			<path d="M40.782,110.144c-0.864-2.328-2.337-5.216-3.899-7.007l3.899,1.41l3.898-1.41
				C43.119,104.928,41.645,107.816,40.782,110.144z"/>
		</g>
	</g>
</g>
<g>
	<g>
		
			<line fill="none" stroke="#000000" stroke-width="0.8198" stroke-miterlimit="10" x1="65.171" y1="70.795" x2="65.171" y2="105.197"/>
		<g>
			<path d="M65.171,110.144c-0.864-2.328-2.338-5.216-3.899-7.007l3.899,1.41l3.897-1.41
				C67.507,104.928,66.033,107.816,65.171,110.144z"/>
		</g>
	</g>
</g>
<g>
	<path d="M6.267,5.741H3.19L2.651,6.995C2.519,7.303,2.452,7.534,2.452,7.686c0,0.121,0.058,0.228,0.173,0.319
		s0.364,0.151,0.747,0.179v0.217H0.87V8.184c0.332-0.059,0.547-0.135,0.645-0.229c0.199-0.188,0.42-0.568,0.662-1.143l2.795-6.539
		h0.205l2.766,6.609c0.223,0.531,0.425,0.876,0.606,1.034s0.435,0.247,0.759,0.267v0.217H6.173V8.184
		c0.316-0.016,0.53-0.068,0.642-0.158s0.167-0.199,0.167-0.328c0-0.172-0.078-0.443-0.234-0.814L6.267,5.741z M6.103,5.307
		L4.755,2.096L3.372,5.307H6.103z"/>
</g>
<g>
	<path d="M29.493,5.741h-3.076l-0.539,1.254c-0.133,0.309-0.199,0.539-0.199,0.691c0,0.121,0.058,0.228,0.173,0.319
		s0.364,0.151,0.747,0.179v0.217h-2.502V8.184c0.332-0.059,0.547-0.135,0.645-0.229c0.199-0.188,0.42-0.568,0.662-1.143l2.795-6.539
		h0.205l2.766,6.609c0.223,0.531,0.425,0.876,0.606,1.034s0.435,0.247,0.759,0.267v0.217h-3.135V8.184
		c0.316-0.016,0.53-0.068,0.642-0.158s0.167-0.199,0.167-0.328c0-0.172-0.078-0.443-0.234-0.814L29.493,5.741z M29.329,5.307
		l-1.348-3.211l-1.383,3.211H29.329z"/>
</g>
<g>
	<path d="M52.72,5.741h-3.076l-0.539,1.254c-0.133,0.309-0.199,0.539-0.199,0.691c0,0.121,0.058,0.228,0.173,0.319
		s0.364,0.151,0.747,0.179v0.217h-2.502V8.184c0.332-0.059,0.547-0.135,0.645-0.229c0.199-0.188,0.42-0.568,0.662-1.143l2.795-6.539
		h0.205l2.766,6.609c0.223,0.531,0.425,0.876,0.606,1.034s0.435,0.247,0.759,0.267v0.217h-3.135V8.184
		c0.316-0.016,0.53-0.068,0.642-0.158s0.167-0.199,0.167-0.328c0-0.172-0.078-0.443-0.234-0.814L52.72,5.741z M52.556,5.307
		l-1.348-3.211l-1.383,3.211H52.556z"/>
</g>
<g>
	<path d="M18.796,116.655c0.551,0.117,0.963,0.305,1.236,0.563c0.379,0.359,0.568,0.799,0.568,1.318
		c0,0.395-0.125,0.771-0.375,1.133s-0.593,0.625-1.028,0.791s-1.101,0.25-1.995,0.25h-3.75v-0.217h0.299
		c0.332,0,0.57-0.105,0.715-0.316c0.09-0.137,0.135-0.428,0.135-0.873v-5.133c0-0.492-0.057-0.803-0.17-0.932
		c-0.152-0.172-0.379-0.258-0.68-0.258h-0.299v-0.217h3.434c0.641,0,1.154,0.047,1.541,0.141c0.586,0.141,1.033,0.389,1.342,0.746
		s0.463,0.77,0.463,1.234c0,0.398-0.121,0.754-0.363,1.068S19.269,116.502,18.796,116.655z M15.726,116.338
		c0.145,0.027,0.31,0.047,0.495,0.061s0.39,0.021,0.612,0.021c0.57,0,0.999-0.063,1.286-0.186s0.507-0.311,0.659-0.564
		s0.229-0.531,0.229-0.832c0-0.465-0.189-0.861-0.568-1.189s-0.932-0.492-1.658-0.492c-0.391,0-0.742,0.043-1.055,0.129V116.338z
		 M15.726,120.135c0.453,0.105,0.9,0.158,1.342,0.158c0.707,0,1.246-0.16,1.617-0.479s0.557-0.711,0.557-1.18
		c0-0.309-0.084-0.605-0.252-0.891s-0.441-0.51-0.82-0.674s-0.848-0.246-1.406-0.246c-0.242,0-0.449,0.004-0.621,0.012
		s-0.311,0.021-0.416,0.041V120.135z"/>
</g>
<g>
	<path d="M42.638,116.655c0.551,0.117,0.963,0.305,1.236,0.563c0.379,0.359,0.568,0.799,0.568,1.318
		c0,0.395-0.125,0.771-0.375,1.133s-0.594,0.625-1.029,0.791s-1.1,0.25-1.995,0.25h-3.75v-0.217h0.299
		c0.332,0,0.57-0.105,0.715-0.316c0.09-0.137,0.135-0.428,0.135-0.873v-5.133c0-0.492-0.057-0.803-0.17-0.932
		c-0.152-0.172-0.379-0.258-0.68-0.258h-0.299v-0.217h3.434c0.641,0,1.154,0.047,1.542,0.141c0.586,0.141,1.033,0.389,1.342,0.746
		s0.463,0.77,0.463,1.234c0,0.398-0.121,0.754-0.363,1.068S43.11,116.502,42.638,116.655z M39.567,116.338
		c0.145,0.027,0.31,0.047,0.495,0.061s0.39,0.021,0.612,0.021c0.57,0,0.999-0.063,1.286-0.186c0.287-0.123,0.508-0.311,0.66-0.564
		s0.229-0.531,0.229-0.832c0-0.465-0.189-0.861-0.568-1.189c-0.379-0.328-0.932-0.492-1.659-0.492c-0.391,0-0.742,0.043-1.055,0.129
		V116.338z M39.567,120.135c0.453,0.105,0.9,0.158,1.342,0.158c0.707,0,1.247-0.16,1.618-0.479s0.557-0.711,0.557-1.18
		c0-0.309-0.084-0.605-0.252-0.891s-0.441-0.51-0.82-0.674c-0.379-0.164-0.848-0.246-1.407-0.246c-0.242,0-0.449,0.004-0.621,0.012
		s-0.311,0.021-0.416,0.041V120.135z"/>
</g>
<g>
	<path d="M66.889,116.655c0.551,0.117,0.963,0.305,1.236,0.563c0.379,0.359,0.568,0.799,0.568,1.318
		c0,0.395-0.125,0.771-0.375,1.133s-0.593,0.625-1.028,0.791s-1.101,0.25-1.995,0.25h-3.75v-0.217h0.299
		c0.332,0,0.57-0.105,0.715-0.316c0.09-0.137,0.135-0.428,0.135-0.873v-5.133c0-0.492-0.057-0.803-0.17-0.932
		c-0.152-0.172-0.379-0.258-0.68-0.258h-0.299v-0.217h3.434c0.641,0,1.154,0.047,1.541,0.141c0.586,0.141,1.033,0.389,1.342,0.746
		s0.463,0.77,0.463,1.234c0,0.398-0.121,0.754-0.363,1.068S67.361,116.502,66.889,116.655z M63.818,116.338
		c0.145,0.027,0.31,0.047,0.495,0.061s0.39,0.021,0.612,0.021c0.57,0,0.999-0.063,1.286-0.186s0.507-0.311,0.659-0.564
		s0.229-0.531,0.229-0.832c0-0.465-0.189-0.861-0.568-1.189s-0.932-0.492-1.658-0.492c-0.391,0-0.742,0.043-1.055,0.129V116.338z
		 M63.818,120.135c0.453,0.105,0.9,0.158,1.342,0.158c0.707,0,1.246-0.16,1.617-0.479s0.557-0.711,0.557-1.18
		c0-0.309-0.084-0.605-0.252-0.891s-0.441-0.51-0.82-0.674s-0.848-0.246-1.406-0.246c-0.242,0-0.449,0.004-0.621,0.012
		s-0.311,0.021-0.416,0.041V120.135z"/>
</g>
<g>
</g>
<g>
</g>
<g>
</g>
<g>
</g>
<g>
</g>
<g>
</g>
<g>
</g>
</svg>
